<?xml version="1.0" encoding="iso-8859-1"?>
<!-- Uploaded to: SVG Repo, www.svgrepo.com, Generator: SVG Repo Mixer Tools -->
<svg
	height="200px"
	width="200px"
	version="1.1"
	id="Capa_1"
	xmlns="http://www.w3.org/2000/svg"
	xmlns:xlink="http://www.w3.org/1999/xlink" 
	viewBox="0 0 232.468 232.468"
	xml:space="preserve">
<g>
	<path style="fill:#010002;" d="M171.204,3.192l-42.697,42.702c-4.248,4.248-11.134,4.248-15.382,0L73.475,6.244
		c-4.248-4.248-11.134-4.248-15.382,0L6.237,58.105c-4.248,4.248-4.248,11.134,0,15.382l39.656,39.651
		c4.248,4.248,4.248,11.134,0,15.382L3.186,171.227c-4.248,4.248-4.248,11.134,0,15.382l42.691,42.669
		c4.248,4.248,11.134,4.248,15.382,0l42.691-42.691c4.248-4.248,11.134-4.248,15.382,0l39.645,39.634
		c4.248,4.248,11.134,4.248,15.382,0l51.861-51.861c4.248-4.248,4.248-11.134,0-15.387l-39.629-39.645
		c-4.248-4.248-4.248-11.139,0-15.387l42.691-42.691c4.248-4.248,4.248-11.134,0-15.382L186.591,3.176
		C182.338-1.056,175.457-1.056,171.204,3.192z"/>
</g>
</svg>